<svg aria-hidden="true" style="position:absolute;width:0;height:0;overflow:hidden" xmlns="http://www.w3.org/2000/svg"><defs><symbol id="icon-refresh" viewBox="0 0 32 32"><path d="M23.5 18a8 8 0 0 1-16 0c0-4.085 3.917-6.595 8-6.951V16l10-7V8l-10-8v5.042c-7.347.432-14 5.561-14 12.958 0 7.732 6.268 14 14 14s14-6.268 14-14h-6z"/></symbol><symbol id="icon-clear" viewBox="0 0 24 24"><path d="M18.984 6.422 13.406 12l5.578 5.578-1.406 1.406L12 13.406l-5.578 5.578-1.406-1.406L10.594 12 5.016 6.422l1.406-1.406L12 10.594l5.578-5.578z"/></symbol><symbol id="icon-keyboard_arrow_left" viewBox="0 0 24 24"><path d="M15.422 16.594 14.016 18l-6-6 6-6 1.406 1.406L10.828 12z"/></symbol><symbol id="icon-keyboard_arrow_right" viewBox="0 0 24 24"><path d="M8.578 16.594 13.172 12 8.578 7.406 9.984 6l6 6-6 6z"/></symbol><symbol id="icon-wifi" viewBox="0 0 24 24"><path d="M5.016 12.984q2.906-2.859 7.008-2.859t6.961 2.859L17.016 15q-.844-.844-2.32-1.453t-2.695-.609-2.695.609T6.986 15zM9 17.016q1.266-1.266 3-1.266t3 1.266l-3 3zM.984 9q4.594-4.547 11.039-4.547T23.015 9l-2.016 2.016q-3.75-3.703-9-3.703t-9 3.703z"/></symbol><symbol id="icon-wifi_off" viewBox="0 0 24 24"><path d="M9 17.016q1.266-1.266 3-1.266t3 1.266l-3 3zM2.016 3.047l1.266-1.266L20.251 18.75l-1.266 1.266-7.078-7.078q-1.172 0-2.625.609T6.985 15l-1.969-1.969v-.047q1.828-1.828 4.406-2.531L7.172 8.25Q4.875 9.188 3 11.016L.984 9q1.828-1.828 4.078-2.906zm16.968 9.937-.938.984-3.563-3.516q2.672.703 4.5 2.531zM22.969 9 21 11.016q-3.938-4.031-9.656-3.703L8.86 4.782q3.797-.797 7.523.281t6.586 3.938z"/></symbol><symbol id="icon-arrow_right_alt" viewBox="0 0 24 24"><path d="M16.031 11.016v-3L20.015 12l-3.984 3.984v-3H3.984v-1.969h12.047z"/></symbol><symbol id="icon-search" viewBox="0 0 26 28"><path d="M18 13c0-3.859-3.141-7-7-7s-7 3.141-7 7 3.141 7 7 7 7-3.141 7-7zm8 13c0 1.094-.906 2-2 2a1.96 1.96 0 0 1-1.406-.594l-5.359-5.344a10.971 10.971 0 0 1-6.234 1.937c-6.078 0-11-4.922-11-11s4.922-11 11-11 11 4.922 11 11c0 2.219-.672 4.406-1.937 6.234l5.359 5.359c.359.359.578.875.578 1.406z"/></symbol><symbol id="icon-user" viewBox="0 0 20 28"><path d="M20 21.859C20 24.14 18.5 26 16.672 26H3.328C1.5 26 0 24.141 0 21.859 0 17.75 1.016 13 5.109 13a6.979 6.979 0 0 0 9.782 0C18.985 13 20 17.75 20 21.859zM16 8c0 3.313-2.688 6-6 6s-6-2.688-6-6 2.688-6 6-6 6 2.688 6 6z"/></symbol><symbol id="icon-shopping-cart" viewBox="0 0 26 28"><path d="M10 24c0 1.094-.906 2-2 2s-2-.906-2-2 .906-2 2-2 2 .906 2 2zm14 0c0 1.094-.906 2-2 2s-2-.906-2-2 .906-2 2-2 2 .906 2 2zm2-17v8c0 .5-.391.938-.891 1L8.797 17.906c.078.359.203.719.203 1.094 0 .359-.219.688-.375 1H23c.547 0 1 .453 1 1s-.453 1-1 1H7c-.547 0-1-.453-1-1 0-.484.703-1.656.953-2.141L4.187 6H1c-.547 0-1-.453-1-1s.453-1 1-1h4c1.047 0 1.078 1.25 1.234 2H25c.547 0 1 .453 1 1z"/></symbol><symbol id="icon-twitter" viewBox="0 0 26 28"><path d="M25.312 6.375a10.85 10.85 0 0 1-2.531 2.609c.016.219.016.438.016.656 0 6.672-5.078 14.359-14.359 14.359-2.859 0-5.516-.828-7.75-2.266.406.047.797.063 1.219.063 2.359 0 4.531-.797 6.266-2.156a5.056 5.056 0 0 1-4.719-3.5c.313.047.625.078.953.078.453 0 .906-.063 1.328-.172a5.048 5.048 0 0 1-4.047-4.953v-.063a5.093 5.093 0 0 0 2.281.641 5.044 5.044 0 0 1-2.25-4.203c0-.938.25-1.797.688-2.547a14.344 14.344 0 0 0 10.406 5.281 5.708 5.708 0 0 1-.125-1.156 5.045 5.045 0 0 1 5.047-5.047 5.03 5.03 0 0 1 3.687 1.594 9.943 9.943 0 0 0 3.203-1.219 5.032 5.032 0 0 1-2.219 2.781c1.016-.109 2-.391 2.906-.781z"/></symbol><symbol id="icon-facebook" viewBox="0 0 16 28"><path d="M14.984.187v4.125h-2.453c-1.922 0-2.281.922-2.281 2.25v2.953h4.578l-.609 4.625H10.25v11.859H5.469V14.14H1.485V9.515h3.984V6.109C5.469 2.156 7.891 0 11.422 0c1.687 0 3.141.125 3.563.187z"/></symbol><symbol id="icon-youtube-play" viewBox="0 0 28 28"><path d="m11.109 17.625 7.562-3.906-7.562-3.953v7.859zM14 4.156c5.891 0 9.797.281 9.797.281.547.063 1.75.063 2.812 1.188 0 0 .859.844 1.109 2.781.297 2.266.281 4.531.281 4.531v2.125s.016 2.266-.281 4.531c-.25 1.922-1.109 2.781-1.109 2.781-1.062 1.109-2.266 1.109-2.812 1.172 0 0-3.906.297-9.797.297-7.281-.063-9.516-.281-9.516-.281-.625-.109-2.031-.078-3.094-1.188 0 0-.859-.859-1.109-2.781C-.016 17.327 0 15.062 0 15.062v-2.125s-.016-2.266.281-4.531C.531 6.469 1.39 5.625 1.39 5.625 2.452 4.5 3.656 4.5 4.202 4.437c0 0 3.906-.281 9.797-.281z"/></symbol><symbol id="icon-instagram" viewBox="0 0 24 28"><path d="M16 14c0-2.203-1.797-4-4-4s-4 1.797-4 4 1.797 4 4 4 4-1.797 4-4zm2.156 0c0 3.406-2.75 6.156-6.156 6.156S5.844 17.406 5.844 14 8.594 7.844 12 7.844s6.156 2.75 6.156 6.156zm1.688-6.406c0 .797-.641 1.437-1.437 1.437S16.97 8.39 16.97 7.594s.641-1.437 1.437-1.437 1.437.641 1.437 1.437zM12 4.156c-1.75 0-5.5-.141-7.078.484-.547.219-.953.484-1.375.906s-.688.828-.906 1.375c-.625 1.578-.484 5.328-.484 7.078s-.141 5.5.484 7.078c.219.547.484.953.906 1.375s.828.688 1.375.906c1.578.625 5.328.484 7.078.484s5.5.141 7.078-.484c.547-.219.953-.484 1.375-.906s.688-.828.906-1.375c.625-1.578.484-5.328.484-7.078s.141-5.5-.484-7.078c-.219-.547-.484-.953-.906-1.375s-.828-.688-1.375-.906C17.5 4.015 13.75 4.156 12 4.156zM24 14c0 1.656.016 3.297-.078 4.953-.094 1.922-.531 3.625-1.937 5.031s-3.109 1.844-5.031 1.937c-1.656.094-3.297.078-4.953.078s-3.297.016-4.953-.078c-1.922-.094-3.625-.531-5.031-1.937S.173 20.875.08 18.953C-.014 17.297.002 15.656.002 14s-.016-3.297.078-4.953c.094-1.922.531-3.625 1.937-5.031s3.109-1.844 5.031-1.937c1.656-.094 3.297-.078 4.953-.078s3.297-.016 4.953.078c1.922.094 3.625.531 5.031 1.937s1.844 3.109 1.937 5.031C24.016 10.703 24 12.344 24 14z"/></symbol></defs></svg>